<?xml version="1.0" encoding="utf-8"?>
<!-- Generator: Adobe Illustrator 15.0.0, SVG Export Plug-In . SVG Version: 6.00 Build 0)  -->
<!DOCTYPE svg PUBLIC "-//W3C//DTD SVG 1.1//EN" "http://www.w3.org/Graphics/SVG/1.1/DTD/svg11.dtd">
<svg version="1.1" id="Layer_1" xmlns="http://www.w3.org/2000/svg" xmlns:xlink="http://www.w3.org/1999/xlink" x="0px" y="0px"
	 width="500px" height="160px" viewBox="0 0 500 160" enable-background="new 0 0 500 160" xml:space="preserve">
<path fill="#FFFFFF" d="M75.797,96.904c5.999-0.43,9.887-1.324,11.663-2.686c1.775-1.359,2.664-4.881,2.664-10.562V18.07
	c0-5.423-0.889-8.915-2.664-10.475c-1.776-1.559-5.664-2.484-11.663-2.771V2.088h43.628v2.736c-6,0.288-9.888,1.212-11.663,2.771
	c-1.776,1.562-2.664,5.052-2.664,10.475v65.586c0,5.681,0.888,9.201,2.664,10.562c1.775,1.361,5.663,2.255,11.663,2.685v2.736
	H75.797V96.904z"/>
<path fill="#FFFFFF" d="M132.024,69.978c2.492,6.624,5.415,11.904,8.77,15.838c5.847,6.865,13.107,10.295,21.782,10.295
	c4.696,0,8.758-1.486,12.185-4.463c3.426-2.976,5.14-7.127,5.14-12.455c0-4.799-1.725-8.975-5.172-12.527
	c-2.252-2.255-6.995-5.639-14.228-10.151l-12.575-7.847c-3.785-2.399-6.806-4.824-9.061-7.271
	c-4.176-4.655-6.264-9.791-6.264-15.407c0-7.439,2.472-13.63,7.416-18.574C144.958,2.473,151.51,0,159.67,0
	c3.359,0,7.403,0.828,12.131,2.484c4.727,1.656,7.427,2.483,8.1,2.483c1.823,0,3.083-0.432,3.779-1.296
	c0.695-0.864,1.235-2.087,1.62-3.671h3.024l3.24,31.389h-3.528c-2.401-9.455-6.252-16.055-11.555-19.798
	c-5.304-3.744-10.547-5.615-15.73-5.615c-4.032,0-7.548,1.188-10.547,3.563c-3,2.376-4.5,5.676-4.5,9.899
	c0,3.792,1.149,7.032,3.449,9.719c2.298,2.735,5.87,5.592,10.714,8.567l12.949,7.992c8.104,4.992,13.819,9.575,17.145,13.75
	c3.277,4.224,4.916,9.215,4.916,14.975c0,7.728-2.916,14.183-8.747,19.366c-5.831,5.184-13.283,7.775-22.354,7.775
	c-4.56,0-9.323-0.864-14.291-2.592c-4.968-1.729-7.812-2.592-8.531-2.592c-1.728,0-2.892,0.528-3.492,1.584
	c-0.601,1.056-0.997,2.183-1.188,3.384h-3.24l-4.392-31.39h3.382V69.978z"/>
<path fill="#FFFFFF" d="M206.178,96.904c6.095-0.623,10.007-2.002,11.735-4.137c1.728-2.134,2.592-7.086,2.592-14.854V18.06
	c0-5.323-0.84-8.789-2.52-10.395c-1.681-1.606-5.496-2.554-11.447-2.841V2.088h29.069l33.861,73.443l33.035-73.443h29.306v2.736
	c-5.473,0.384-9,1.379-10.584,2.985c-1.582,1.606-2.375,5.024-2.375,10.251v65.536c0,5.372,0.793,8.812,2.375,10.323
	c1.584,1.511,5.112,2.505,10.584,2.983v2.736h-41.254v-2.736c5.951-0.479,9.659-1.547,11.123-3.201
	c1.465-1.653,2.196-5.6,2.196-11.834V15.686l-37.761,83.955h-2.016l-37.114-80.5v58.773c0,8.058,1.176,13.31,3.528,15.754
	c1.536,1.584,4.968,2.663,10.295,3.237v2.736h-34.629V96.904L206.178,96.904z"/>
<path fill="#FFFFFF" d="M75.697,132.014c1.118-0.08,1.842-0.248,2.173-0.5c0.331-0.254,0.496-0.91,0.496-1.969v-12.22
	c0-1.011-0.166-1.661-0.496-1.952c-0.331-0.291-1.055-0.463-2.173-0.518v-0.508h8.128v0.508c-1.118,0.055-1.842,0.227-2.173,0.518
	s-0.496,0.941-0.496,1.952v12.22c0,1.059,0.166,1.714,0.496,1.969c0.331,0.252,1.055,0.42,2.173,0.5v0.51h-8.128V132.014z"/>
<path fill="#FFFFFF" d="M84.898,132.146c0.635-0.08,1.08-0.238,1.335-0.476s0.382-0.767,0.382-1.59v-6.813
	c0-0.567-0.054-0.968-0.161-1.197c-0.17-0.338-0.519-0.506-1.046-0.506c-0.081,0-0.163,0.004-0.248,0.013s-0.19,0.022-0.315,0.041
	v-0.47c0.366-0.107,1.234-0.385,2.602-0.832l1.261-0.416c0.062,0,0.101,0.021,0.114,0.066c0.013,0.045,0.02,0.107,0.02,0.188v1.972
	c0.821-0.77,1.463-1.296,1.928-1.583c0.696-0.438,1.419-0.657,2.169-0.657c0.607,0,1.16,0.174,1.66,0.523
	c0.964,0.68,1.446,1.892,1.446,3.635v6.264c0,0.645,0.128,1.109,0.386,1.396c0.257,0.287,0.688,0.435,1.291,0.442v0.375h-5.728
	v-0.375c0.653-0.088,1.109-0.271,1.368-0.543c0.259-0.271,0.389-0.864,0.389-1.776V124.1c0-0.769-0.143-1.406-0.427-1.912
	c-0.285-0.504-0.81-0.758-1.574-0.758c-0.525,0-1.059,0.18-1.601,0.537c-0.303,0.206-0.694,0.545-1.174,1.02v7.512
	c0,0.645,0.143,1.075,0.429,1.294c0.286,0.219,0.738,0.337,1.355,0.354v0.375h-5.862L84.898,132.146L84.898,132.146z"/>
<path fill="#FFFFFF" d="M99.573,128.298h0.443c0.205,1.021,0.482,1.802,0.83,2.347c0.625,1.002,1.539,1.502,2.743,1.502
	c0.669,0,1.198-0.186,1.586-0.557c0.388-0.371,0.582-0.852,0.582-1.441c0-0.375-0.112-0.738-0.335-1.086
	c-0.224-0.35-0.617-0.688-1.18-1.021l-1.501-0.858c-1.1-0.59-1.909-1.185-2.428-1.783c-0.519-0.6-0.778-1.305-0.778-2.119
	c0-1.002,0.357-1.824,1.073-2.469c0.715-0.644,1.614-0.965,2.696-0.965c0.474,0,0.995,0.09,1.562,0.269
	c0.567,0.179,0.888,0.268,0.959,0.268c0.161,0,0.277-0.022,0.349-0.067c0.071-0.045,0.134-0.115,0.188-0.215h0.322l0.094,3.743
	h-0.416c-0.179-0.868-0.42-1.542-0.724-2.024c-0.555-0.895-1.355-1.342-2.401-1.342c-0.626,0-1.118,0.192-1.476,0.578
	c-0.358,0.383-0.537,0.836-0.537,1.354c0,0.822,0.617,1.556,1.851,2.199l1.771,0.953c1.905,1.039,2.857,2.246,2.857,3.623
	c0,1.055-0.395,1.918-1.185,2.588s-1.823,1.006-3.1,1.006c-0.536,0-1.143-0.088-1.821-0.268c-0.678-0.179-1.08-0.269-1.205-0.269
	c-0.107,0-0.201,0.038-0.281,0.114c-0.081,0.076-0.143,0.166-0.187,0.274h-0.349v-4.334H99.573z"/>
<path fill="#FFFFFF" d="M115.816,120.156v0.966h-2.736l-0.027,7.726c0,0.68,0.058,1.194,0.174,1.543
	c0.215,0.616,0.635,0.926,1.261,0.926c0.322,0,0.601-0.076,0.838-0.229c0.237-0.152,0.508-0.395,0.812-0.725l0.349,0.295
	l-0.295,0.402c-0.465,0.625-0.957,1.067-1.475,1.328c-0.519,0.258-1.02,0.389-1.502,0.389c-1.055,0-1.771-0.471-2.146-1.408
	c-0.206-0.51-0.309-1.217-0.309-2.12v-8.128h-1.462c-0.044-0.027-0.078-0.055-0.101-0.081c-0.022-0.026-0.033-0.062-0.033-0.106
	c0-0.09,0.02-0.16,0.06-0.209c0.041-0.049,0.168-0.162,0.382-0.342c0.617-0.51,1.062-0.923,1.335-1.24
	c0.272-0.317,0.914-1.156,1.925-2.516c0.116,0,0.185,0.01,0.208,0.025c0.022,0.019,0.034,0.086,0.034,0.203v3.299h2.708V120.156z"/>
<path fill="#FFFFFF" d="M116.997,132.146c0.957-0.088,1.56-0.252,1.811-0.489c0.25-0.237,0.376-0.878,0.376-1.925v-6.398
	c0-0.582-0.041-0.984-0.121-1.208c-0.134-0.366-0.416-0.55-0.845-0.55c-0.099,0-0.195,0.009-0.289,0.027
	c-0.094,0.018-0.364,0.088-0.812,0.215v-0.416l0.577-0.188c1.565-0.509,2.656-0.894,3.273-1.153c0.25-0.106,0.411-0.16,0.483-0.16
	c0.018,0.062,0.027,0.129,0.027,0.201v9.631c0,1.02,0.123,1.658,0.369,1.918c0.246,0.26,0.803,0.425,1.67,0.496v0.375h-6.519
	V132.146z M119.129,114.212c0.268-0.276,0.599-0.414,0.992-0.414c0.385,0,0.713,0.136,0.986,0.407
	c0.272,0.271,0.409,0.604,0.409,0.995c0,0.383-0.136,0.71-0.409,0.981c-0.273,0.271-0.602,0.406-0.986,0.406
	c-0.394,0-0.724-0.136-0.992-0.406c-0.269-0.271-0.402-0.6-0.402-0.981S118.861,114.488,119.129,114.212z"/>
<path fill="#FFFFFF" d="M131.081,120.156v0.966h-2.736l-0.027,7.726c0,0.68,0.058,1.194,0.174,1.543
	c0.215,0.616,0.635,0.926,1.261,0.926c0.322,0,0.601-0.076,0.838-0.229c0.237-0.152,0.508-0.395,0.812-0.725l0.349,0.295
	l-0.295,0.402c-0.465,0.625-0.957,1.067-1.475,1.328c-0.519,0.258-1.02,0.389-1.502,0.389c-1.055,0-1.771-0.471-2.146-1.408
	c-0.206-0.51-0.309-1.217-0.309-2.12v-8.128h-1.462c-0.044-0.027-0.078-0.055-0.101-0.081c-0.022-0.026-0.033-0.062-0.033-0.106
	c0-0.09,0.02-0.16,0.06-0.209c0.041-0.049,0.168-0.162,0.382-0.342c0.617-0.51,1.062-0.923,1.335-1.24
	c0.272-0.317,0.914-1.156,1.925-2.516c0.116,0,0.185,0.01,0.208,0.025c0.022,0.019,0.034,0.086,0.034,0.203v3.299h2.708V120.156z"/>
<path fill="#FFFFFF" d="M135.977,120.102v8.584c0,0.608,0.085,1.097,0.255,1.463c0.331,0.68,0.939,1.019,1.824,1.019
	c0.608,0,1.203-0.201,1.784-0.604c0.331-0.223,0.666-0.531,1.006-0.924v-7.352c0-0.688-0.134-1.141-0.402-1.354
	c-0.269-0.216-0.805-0.345-1.61-0.39v-0.442h4.333v9.442c0,0.608,0.109,1.026,0.329,1.254c0.22,0.228,0.682,0.329,1.389,0.302v0.375
	c-0.492,0.135-0.854,0.235-1.087,0.303c-0.232,0.066-0.622,0.189-1.167,0.369c-0.232,0.08-0.742,0.272-1.529,0.576
	c-0.045,0-0.072-0.02-0.081-0.061c-0.009-0.04-0.013-0.087-0.013-0.141v-2.16c-0.608,0.725-1.163,1.261-1.664,1.609
	c-0.76,0.537-1.565,0.805-2.414,0.805c-0.778,0-1.512-0.276-2.2-0.832c-0.697-0.547-1.046-1.465-1.046-2.754v-6.97
	c0-0.71-0.152-1.185-0.456-1.424c-0.197-0.151-0.617-0.257-1.261-0.319v-0.375H135.977L135.977,120.102z"/>
<path fill="#FFFFFF" d="M152.448,120.156v0.966h-2.736l-0.027,7.726c0,0.68,0.058,1.194,0.174,1.543
	c0.215,0.616,0.635,0.926,1.261,0.926c0.322,0,0.601-0.076,0.838-0.229s0.508-0.395,0.812-0.725l0.349,0.295l-0.295,0.402
	c-0.465,0.625-0.957,1.067-1.475,1.328c-0.519,0.258-1.02,0.389-1.502,0.389c-1.055,0-1.771-0.471-2.146-1.408
	c-0.206-0.51-0.309-1.217-0.309-2.12v-8.128h-1.462c-0.044-0.027-0.078-0.055-0.101-0.081c-0.022-0.026-0.033-0.062-0.033-0.106
	c0-0.09,0.02-0.16,0.06-0.209c0.041-0.049,0.168-0.162,0.382-0.342c0.617-0.51,1.062-0.923,1.335-1.24
	c0.272-0.317,0.914-1.156,1.925-2.516c0.116,0,0.185,0.01,0.208,0.025c0.022,0.019,0.034,0.086,0.034,0.203v3.299h2.708V120.156z"/>
<path fill="#FFFFFF" d="M168.262,120.275c0.357,0.188,0.702,0.447,1.033,0.779v-4.267c0-0.545-0.06-0.921-0.181-1.126
	c-0.121-0.206-0.409-0.309-0.865-0.309c-0.107,0-0.201,0.004-0.282,0.013c-0.081,0.009-0.26,0.026-0.537,0.054v-0.441l1.1-0.283
	c0.402-0.106,0.805-0.219,1.207-0.334c0.402-0.116,0.755-0.229,1.06-0.336c0.143-0.043,0.38-0.129,0.711-0.254l0.081,0.026
	l-0.027,1.409c-0.009,0.51-0.018,1.035-0.027,1.576c-0.009,0.542-0.013,1.076-0.013,1.603l-0.027,10.96
	c0,0.58,0.071,0.987,0.214,1.219c0.143,0.233,0.523,0.35,1.14,0.35c0.098,0,0.197-0.002,0.295-0.007
	c0.099-0.005,0.197-0.017,0.295-0.034v0.443c-0.054,0.018-0.702,0.24-1.945,0.67l-2.106,0.791l-0.094-0.12v-1.65
	c-0.5,0.545-0.934,0.935-1.301,1.167c-0.653,0.402-1.409,0.604-2.267,0.604c-1.52,0-2.752-0.588-3.695-1.764
	c-0.943-1.176-1.415-2.537-1.415-4.084c0-1.939,0.565-3.605,1.697-4.996c1.131-1.391,2.515-2.086,4.151-2.086
	C167.118,119.848,167.717,119.991,168.262,120.275z M168.651,130.712c0.429-0.411,0.644-0.8,0.644-1.167v-5.754
	c0-1.163-0.311-1.982-0.932-2.461c-0.621-0.479-1.227-0.719-1.817-0.719c-1.127,0-2.003,0.5-2.629,1.496
	c-0.626,0.998-0.939,2.226-0.939,3.683c0,1.44,0.333,2.724,0.999,3.851c0.666,1.125,1.661,1.689,2.985,1.689
	C167.659,131.329,168.222,131.124,168.651,130.712z"/>
<path fill="#FFFFFF" d="M183.299,121.249c0.948,0.872,1.422,2.108,1.422,3.709h-8.518c0.089,2.069,0.559,3.578,1.408,4.522
	c0.849,0.945,1.855,1.418,3.018,1.418c0.939,0,1.73-0.244,2.374-0.735s1.239-1.187,1.784-2.088l0.47,0.161
	c-0.367,1.138-1.053,2.189-2.059,3.156c-1.006,0.967-2.238,1.451-3.695,1.451c-1.682,0-2.98-0.635-3.896-1.904
	c-0.917-1.271-1.375-2.731-1.375-4.387c0-1.797,0.532-3.349,1.596-4.654s2.45-1.959,4.158-1.959
	C181.247,119.941,182.351,120.377,183.299,121.249z M176.874,122.275c-0.286,0.482-0.492,1.091-0.617,1.824h5.66
	c-0.098-0.896-0.268-1.562-0.509-2c-0.438-0.787-1.172-1.18-2.2-1.18C178.188,120.92,177.41,121.372,176.874,122.275z"/>
<path fill="#FFFFFF" d="M187.322,128.298h0.443c0.205,1.021,0.482,1.802,0.83,2.347c0.625,1.002,1.539,1.502,2.743,1.502
	c0.669,0,1.198-0.186,1.586-0.557c0.388-0.371,0.582-0.852,0.582-1.441c0-0.375-0.112-0.738-0.335-1.086
	c-0.224-0.35-0.617-0.688-1.18-1.021l-1.501-0.858c-1.1-0.59-1.909-1.185-2.428-1.783c-0.519-0.6-0.778-1.305-0.778-2.119
	c0-1.002,0.357-1.824,1.073-2.469c0.715-0.644,1.614-0.965,2.696-0.965c0.474,0,0.995,0.09,1.562,0.269
	c0.567,0.179,0.888,0.268,0.959,0.268c0.161,0,0.277-0.022,0.349-0.067c0.071-0.045,0.134-0.115,0.188-0.215h0.322l0.094,3.743
	h-0.416c-0.179-0.868-0.42-1.542-0.724-2.024c-0.555-0.895-1.355-1.342-2.401-1.342c-0.626,0-1.118,0.192-1.476,0.578
	c-0.358,0.383-0.537,0.836-0.537,1.354c0,0.822,0.617,1.556,1.851,2.199l1.771,0.953c1.905,1.039,2.857,2.246,2.857,3.623
	c0,1.055-0.395,1.918-1.185,2.588s-1.823,1.006-3.1,1.006c-0.536,0-1.143-0.088-1.821-0.268c-0.678-0.179-1.08-0.269-1.205-0.269
	c-0.107,0-0.201,0.038-0.281,0.114c-0.081,0.076-0.143,0.166-0.187,0.274h-0.349v-4.334H187.322z"/>
<path fill="#FFFFFF" d="M204.88,128.298h0.443c0.205,1.021,0.482,1.802,0.83,2.347c0.625,1.002,1.539,1.502,2.743,1.502
	c0.669,0,1.198-0.186,1.586-0.557s0.582-0.852,0.582-1.441c0-0.375-0.112-0.738-0.335-1.086c-0.224-0.35-0.617-0.688-1.18-1.021
	l-1.501-0.858c-1.1-0.59-1.909-1.185-2.428-1.783c-0.519-0.6-0.778-1.305-0.778-2.119c0-1.002,0.357-1.824,1.073-2.469
	c0.715-0.644,1.614-0.965,2.696-0.965c0.474,0,0.995,0.09,1.562,0.269c0.567,0.179,0.888,0.268,0.959,0.268
	c0.161,0,0.277-0.022,0.349-0.067c0.071-0.045,0.134-0.115,0.188-0.215h0.322l0.094,3.743h-0.416
	c-0.179-0.868-0.42-1.542-0.724-2.024c-0.555-0.895-1.355-1.342-2.401-1.342c-0.626,0-1.118,0.192-1.476,0.578
	c-0.358,0.383-0.537,0.836-0.537,1.354c0,0.822,0.617,1.556,1.851,2.199l1.771,0.953c1.905,1.039,2.857,2.246,2.857,3.623
	c0,1.055-0.395,1.918-1.185,2.588c-0.79,0.67-1.823,1.006-3.1,1.006c-0.536,0-1.143-0.088-1.821-0.268
	c-0.678-0.179-1.08-0.269-1.205-0.269c-0.107,0-0.201,0.038-0.281,0.114c-0.081,0.076-0.143,0.166-0.187,0.274h-0.349v-4.334H204.88
	z"/>
<path fill="#FFFFFF" d="M223.854,120.736c0.81,0.574,1.214,1.205,1.214,1.892c0,0.294-0.103,0.567-0.308,0.822
	c-0.206,0.254-0.523,0.381-0.953,0.381c-0.313,0-0.588-0.106-0.825-0.322c-0.237-0.215-0.409-0.528-0.517-0.938l-0.161-0.645
	c-0.117-0.474-0.318-0.809-0.604-1.006c-0.295-0.188-0.684-0.281-1.167-0.281c-1.019,0-1.88,0.445-2.582,1.336
	c-0.702,0.891-1.053,2.074-1.053,3.553c0,1.352,0.387,2.564,1.16,3.64s1.817,1.612,3.132,1.612c0.93,0,1.757-0.305,2.481-0.914
	c0.412-0.35,0.876-0.905,1.395-1.667l0.376,0.229c-0.51,1.074-1.046,1.925-1.61,2.552c-1.082,1.199-2.334,1.799-3.756,1.799
	c-1.395,0-2.629-0.551-3.702-1.65c-1.073-1.1-1.61-2.593-1.61-4.48c0-1.851,0.585-3.442,1.757-4.774
	c1.171-1.332,2.651-1.999,4.439-1.999C222.081,119.874,223.044,120.162,223.854,120.736z"/>
<path fill="#FFFFFF" d="M226.865,132.146c0.957-0.088,1.56-0.252,1.811-0.489c0.25-0.237,0.376-0.878,0.376-1.925v-6.398
	c0-0.582-0.041-0.984-0.121-1.208c-0.134-0.366-0.416-0.55-0.845-0.55c-0.099,0-0.195,0.009-0.289,0.027
	c-0.094,0.018-0.364,0.088-0.812,0.215v-0.416l0.577-0.188c1.565-0.509,2.656-0.894,3.273-1.153c0.25-0.106,0.411-0.16,0.483-0.16
	c0.018,0.062,0.027,0.129,0.027,0.201v9.631c0,1.02,0.123,1.658,0.369,1.918s0.803,0.425,1.67,0.496v0.375h-6.519V132.146z
	 M228.998,114.212c0.268-0.276,0.599-0.414,0.992-0.414c0.385,0,0.713,0.136,0.986,0.407c0.272,0.271,0.409,0.604,0.409,0.995
	c0,0.383-0.136,0.71-0.409,0.981c-0.273,0.271-0.602,0.406-0.986,0.406c-0.394,0-0.724-0.136-0.992-0.406
	c-0.269-0.271-0.402-0.6-0.402-0.981S228.729,114.488,228.998,114.212z"/>
<path fill="#FFFFFF" d="M243.564,121.249c0.948,0.872,1.422,2.108,1.422,3.709h-8.518c0.089,2.069,0.559,3.578,1.408,4.522
	c0.849,0.945,1.855,1.418,3.018,1.418c0.939,0,1.73-0.244,2.374-0.735s1.239-1.187,1.784-2.088l0.47,0.161
	c-0.367,1.138-1.053,2.189-2.059,3.156s-2.238,1.451-3.695,1.451c-1.682,0-2.98-0.635-3.896-1.904
	c-0.917-1.271-1.375-2.731-1.375-4.387c0-1.797,0.532-3.349,1.596-4.654s2.45-1.959,4.158-1.959
	C241.512,119.941,242.616,120.377,243.564,121.249z M237.139,122.275c-0.286,0.482-0.492,1.091-0.617,1.824h5.66
	c-0.098-0.896-0.268-1.562-0.509-2c-0.438-0.787-1.172-1.18-2.2-1.18C238.454,120.92,237.676,121.372,237.139,122.275z"/>
<path fill="#FFFFFF" d="M246.649,132.146c0.635-0.08,1.08-0.238,1.335-0.476c0.255-0.237,0.382-0.767,0.382-1.59v-6.813
	c0-0.567-0.054-0.968-0.161-1.197c-0.17-0.338-0.519-0.506-1.046-0.506c-0.081,0-0.163,0.004-0.248,0.013s-0.19,0.022-0.315,0.041
	v-0.47c0.366-0.107,1.234-0.385,2.602-0.832l1.261-0.416c0.062,0,0.102,0.021,0.114,0.066s0.02,0.107,0.02,0.188v1.972
	c0.821-0.77,1.464-1.296,1.929-1.583c0.695-0.438,1.418-0.657,2.168-0.657c0.607,0,1.16,0.174,1.66,0.523
	c0.965,0.68,1.446,1.892,1.446,3.635v6.264c0,0.645,0.128,1.109,0.386,1.396c0.258,0.287,0.688,0.435,1.291,0.442v0.375h-5.728
	v-0.375c0.653-0.088,1.108-0.271,1.368-0.543c0.259-0.271,0.389-0.864,0.389-1.776V124.1c0-0.769-0.143-1.406-0.427-1.912
	c-0.285-0.504-0.81-0.758-1.574-0.758c-0.524,0-1.06,0.18-1.601,0.537c-0.303,0.206-0.694,0.545-1.174,1.02v7.512
	c0,0.645,0.143,1.075,0.428,1.294c0.287,0.219,0.738,0.337,1.355,0.354v0.375h-5.862L246.649,132.146L246.649,132.146z"/>
<path fill="#FFFFFF" d="M269.605,120.736c0.811,0.574,1.215,1.205,1.215,1.892c0,0.294-0.104,0.567-0.309,0.822
	c-0.205,0.254-0.523,0.381-0.953,0.381c-0.312,0-0.588-0.106-0.824-0.322c-0.237-0.215-0.409-0.528-0.518-0.938l-0.16-0.645
	c-0.117-0.474-0.318-0.809-0.604-1.006c-0.296-0.188-0.685-0.281-1.167-0.281c-1.02,0-1.881,0.445-2.582,1.336
	c-0.702,0.891-1.053,2.074-1.053,3.553c0,1.352,0.387,2.564,1.16,3.64c0.772,1.075,1.816,1.612,3.131,1.612
	c0.931,0,1.758-0.305,2.481-0.914c0.412-0.35,0.876-0.905,1.396-1.667l0.375,0.229c-0.51,1.074-1.045,1.925-1.609,2.552
	c-1.082,1.199-2.334,1.799-3.756,1.799c-1.395,0-2.629-0.551-3.702-1.65s-1.61-2.593-1.61-4.48c0-1.851,0.586-3.442,1.758-4.774
	c1.17-1.332,2.65-1.999,4.438-1.999C267.834,119.874,268.797,120.162,269.605,120.736z"/>
<path fill="#FFFFFF" d="M281.686,121.249c0.947,0.872,1.422,2.108,1.422,3.709h-8.519c0.089,2.069,0.56,3.578,1.408,4.522
	c0.849,0.945,1.854,1.418,3.019,1.418c0.938,0,1.729-0.244,2.373-0.735c0.645-0.491,1.239-1.187,1.784-2.088l0.47,0.161
	c-0.367,1.138-1.053,2.189-2.059,3.156s-2.238,1.451-3.695,1.451c-1.682,0-2.979-0.635-3.896-1.904
	c-0.917-1.271-1.375-2.731-1.375-4.387c0-1.797,0.532-3.349,1.596-4.654s2.45-1.959,4.158-1.959
	C279.633,119.941,280.736,120.377,281.686,121.249z M275.26,122.275c-0.285,0.482-0.492,1.091-0.617,1.824h5.66
	c-0.098-0.896-0.268-1.562-0.509-2c-0.438-0.787-1.172-1.18-2.2-1.18C276.575,120.92,275.796,121.372,275.26,122.275z"/>
<path fill="#FFFFFF" d="M285.709,128.298h0.443c0.205,1.021,0.481,1.802,0.83,2.347c0.625,1.002,1.539,1.502,2.742,1.502
	c0.67,0,1.198-0.186,1.586-0.557c0.389-0.371,0.582-0.852,0.582-1.441c0-0.375-0.111-0.738-0.334-1.086
	c-0.225-0.35-0.617-0.688-1.181-1.021l-1.501-0.858c-1.1-0.59-1.909-1.185-2.428-1.783c-0.52-0.6-0.778-1.305-0.778-2.119
	c0-1.002,0.356-1.824,1.073-2.469c0.715-0.644,1.613-0.965,2.695-0.965c0.475,0,0.996,0.09,1.562,0.269s0.889,0.268,0.959,0.268
	c0.161,0,0.277-0.022,0.35-0.067c0.07-0.045,0.133-0.115,0.188-0.215h0.322l0.094,3.743h-0.416c-0.18-0.868-0.42-1.542-0.725-2.024
	c-0.555-0.895-1.354-1.342-2.4-1.342c-0.626,0-1.118,0.192-1.477,0.578c-0.357,0.383-0.537,0.836-0.537,1.354
	c0,0.822,0.617,1.556,1.852,2.199l1.771,0.953c1.904,1.039,2.856,2.246,2.856,3.623c0,1.055-0.396,1.918-1.185,2.588
	c-0.79,0.67-1.823,1.006-3.1,1.006c-0.537,0-1.144-0.088-1.822-0.268c-0.678-0.179-1.08-0.269-1.205-0.269
	c-0.106,0-0.2,0.038-0.28,0.114c-0.081,0.076-0.144,0.166-0.187,0.274h-0.35v-4.334H285.709z"/>
<path fill="#FFFFFF" d="M302.275,132.174c0.697-0.062,1.162-0.179,1.395-0.349c0.357-0.259,0.537-0.778,0.537-1.556v-6.936
	c0-0.662-0.087-1.095-0.262-1.301c-0.174-0.206-0.463-0.309-0.864-0.309c-0.188,0-0.329,0.008-0.423,0.026s-0.203,0.049-0.329,0.095
	v-0.471l0.966-0.322c0.35-0.115,0.921-0.326,1.717-0.63c0.797-0.304,1.217-0.456,1.262-0.456c0.043,0,0.07,0.022,0.08,0.067
	s0.014,0.13,0.014,0.255v1.811c0.885-0.805,1.65-1.36,2.293-1.67c0.645-0.308,1.306-0.462,1.984-0.462
	c0.922,0,1.654,0.313,2.2,0.939c0.286,0.34,0.523,0.8,0.712,1.381c0.661-0.67,1.237-1.167,1.729-1.489
	c0.85-0.554,1.717-0.832,2.603-0.832c1.438,0,2.4,0.585,2.883,1.758c0.277,0.661,0.416,1.707,0.416,3.139v5.566
	c0,0.635,0.142,1.066,0.422,1.295c0.281,0.228,0.789,0.377,1.522,0.448v0.349h-6.049v-0.375c0.778-0.071,1.29-0.228,1.536-0.47
	c0.246-0.241,0.369-0.733,0.369-1.475v-5.781c0-0.866-0.094-1.507-0.282-1.918c-0.331-0.733-0.979-1.101-1.945-1.101
	c-0.582,0-1.157,0.193-1.729,0.578c-0.332,0.224-0.738,0.582-1.221,1.072v6.868c0,0.724,0.127,1.274,0.381,1.649
	c0.256,0.375,0.793,0.578,1.617,0.604v0.349h-6.158v-0.349c0.851-0.106,1.392-0.313,1.623-0.616c0.232-0.305,0.35-1.056,0.35-2.254
	v-3.748c0-1.375-0.09-2.32-0.268-2.838c-0.295-0.876-0.922-1.314-1.879-1.314c-0.545,0-1.082,0.15-1.609,0.449
	c-0.527,0.301-0.992,0.691-1.395,1.174v7.338c0,0.68,0.118,1.148,0.355,1.408c0.236,0.26,0.753,0.395,1.549,0.402v0.35h-6.104
	v-0.352H302.275z"/>
<path fill="#FFFFFF" d="M326.15,126.607c0.822-0.537,2.463-1.266,4.923-2.187v-1.14c0-0.912-0.089-1.547-0.269-1.905
	c-0.304-0.599-0.935-0.897-1.892-0.897c-0.456,0-0.89,0.115-1.302,0.349c-0.411,0.241-0.616,0.571-0.616,0.993
	c0,0.106,0.022,0.287,0.067,0.543c0.045,0.255,0.066,0.418,0.066,0.49c0,0.5-0.166,0.85-0.497,1.045
	c-0.188,0.117-0.411,0.176-0.67,0.176c-0.401,0-0.711-0.133-0.926-0.396c-0.214-0.264-0.322-0.557-0.322-0.878
	c0-0.626,0.388-1.28,1.16-1.965s1.907-1.026,3.399-1.026c1.735,0,2.912,0.563,3.528,1.69c0.331,0.617,0.496,1.517,0.496,2.696v5.379
	c0,0.519,0.036,0.876,0.106,1.072c0.117,0.35,0.357,0.523,0.725,0.523c0.206,0,0.376-0.031,0.51-0.094
	c0.135-0.062,0.367-0.215,0.698-0.456v0.698c-0.287,0.349-0.595,0.635-0.926,0.857c-0.501,0.34-1.011,0.51-1.529,0.51
	c-0.608,0-1.049-0.196-1.321-0.59s-0.422-0.863-0.449-1.408c-0.68,0.59-1.26,1.028-1.743,1.314c-0.813,0.482-1.587,0.725-2.32,0.725
	c-0.769,0-1.435-0.271-1.999-0.812s-0.845-1.227-0.845-2.059C324.205,128.557,324.854,127.475,326.15,126.607z M331.073,125.092
	c-1.028,0.34-1.878,0.717-2.548,1.127c-1.289,0.797-1.933,1.699-1.933,2.709c0,0.814,0.269,1.413,0.806,1.797
	c0.349,0.25,0.737,0.375,1.166,0.375c0.59,0,1.156-0.166,1.697-0.496s0.812-0.75,0.812-1.261L331.073,125.092L331.073,125.092z"/>
<path fill="#FFFFFF" d="M342.38,120.156v0.966h-2.735l-0.027,7.726c0,0.68,0.058,1.194,0.174,1.543
	c0.215,0.616,0.635,0.926,1.261,0.926c0.322,0,0.601-0.076,0.839-0.229c0.236-0.152,0.508-0.395,0.812-0.725l0.349,0.295
	l-0.295,0.402c-0.465,0.625-0.957,1.067-1.475,1.328c-0.52,0.258-1.02,0.389-1.502,0.389c-1.055,0-1.771-0.471-2.146-1.408
	c-0.206-0.51-0.309-1.217-0.309-2.12v-8.128h-1.463c-0.043-0.027-0.077-0.055-0.101-0.081c-0.022-0.026-0.032-0.062-0.032-0.106
	c0-0.09,0.02-0.16,0.06-0.209c0.041-0.049,0.168-0.162,0.382-0.342c0.617-0.51,1.062-0.923,1.335-1.24s0.914-1.156,1.925-2.516
	c0.116,0,0.186,0.01,0.209,0.025c0.021,0.019,0.033,0.086,0.033,0.203v3.299h2.708V120.156z"/>
<path fill="#FFFFFF" d="M343.266,132.146c0.733-0.098,1.215-0.278,1.442-0.543c0.228-0.264,0.342-0.887,0.342-1.871v-12.875
	c0-0.502-0.065-0.871-0.194-1.107s-0.444-0.355-0.945-0.355c-0.1,0-0.194,0.008-0.289,0.021c-0.094,0.015-0.199,0.028-0.314,0.047
	v-0.483c0.394-0.115,0.877-0.256,1.454-0.422s0.978-0.285,1.201-0.355l1.288-0.402l0.027,0.094v8.235
	c0.562-0.644,1.063-1.118,1.502-1.421c0.787-0.537,1.636-0.805,2.548-0.805c1.448,0,2.437,0.607,2.964,1.824
	c0.286,0.644,0.429,1.488,0.429,2.534v5.474c0,0.947,0.109,1.564,0.329,1.851c0.221,0.286,0.668,0.474,1.348,0.563v0.375h-5.808
	v-0.375c0.778-0.107,1.279-0.291,1.502-0.551c0.224-0.259,0.335-0.881,0.335-1.865v-5.432c0-0.867-0.146-1.568-0.436-2.105
	c-0.291-0.537-0.838-0.805-1.644-0.805c-0.698,0-1.372,0.25-2.024,0.75c-0.653,0.502-0.979,0.827-0.979,0.979v6.612
	c0,1.002,0.116,1.629,0.349,1.879s0.729,0.429,1.49,0.537v0.375h-5.916V132.146L343.266,132.146z"/>
<path fill="#FFFFFF" d="M366.363,121.249c0.947,0.872,1.422,2.108,1.422,3.709h-8.518c0.088,2.069,0.559,3.578,1.407,4.522
	c0.849,0.945,1.854,1.418,3.019,1.418c0.938,0,1.729-0.244,2.373-0.735c0.645-0.491,1.24-1.187,1.785-2.088l0.469,0.161
	c-0.366,1.138-1.053,2.189-2.059,3.156s-2.238,1.451-3.695,1.451c-1.682,0-2.979-0.635-3.896-1.904
	c-0.917-1.271-1.375-2.731-1.375-4.387c0-1.797,0.532-3.349,1.597-4.654c1.063-1.306,2.449-1.959,4.157-1.959
	C364.311,119.941,365.415,120.377,366.363,121.249z M359.938,122.275c-0.285,0.482-0.492,1.091-0.617,1.824h5.66
	c-0.098-0.896-0.268-1.562-0.508-2c-0.438-0.787-1.173-1.18-2.201-1.18C361.253,120.92,360.475,121.372,359.938,122.275z
	 M366.9,115.408c-0.144,0.17-0.354,0.344-0.631,0.523l-4.226,2.668h-1.112l4.037-4.063c0.143-0.144,0.322-0.291,0.537-0.442
	c0.214-0.152,0.441-0.228,0.684-0.228c0.232,0,0.445,0.083,0.638,0.248s0.288,0.382,0.288,0.649
	C367.114,115.023,367.042,115.238,366.9,115.408z"/>
<path fill="#FFFFFF" d="M369.395,132.174c0.697-0.062,1.162-0.179,1.396-0.349c0.358-0.259,0.537-0.778,0.537-1.556v-6.936
	c0-0.662-0.087-1.095-0.261-1.301c-0.176-0.206-0.463-0.309-0.865-0.309c-0.188,0-0.329,0.008-0.424,0.026
	c-0.094,0.019-0.202,0.049-0.328,0.095v-0.471l0.966-0.322c0.349-0.115,0.921-0.326,1.717-0.63s1.216-0.456,1.261-0.456
	s0.071,0.022,0.082,0.067c0.008,0.045,0.012,0.13,0.012,0.255v1.811c0.886-0.805,1.65-1.36,2.293-1.67
	c0.645-0.308,1.307-0.462,1.986-0.462c0.92,0,1.653,0.313,2.199,0.939c0.286,0.34,0.523,0.8,0.711,1.381
	c0.662-0.67,1.238-1.167,1.73-1.489c0.85-0.554,1.717-0.832,2.602-0.832c1.439,0,2.401,0.585,2.885,1.758
	c0.276,0.661,0.416,1.707,0.416,3.139v5.566c0,0.635,0.141,1.066,0.422,1.295c0.28,0.228,0.789,0.377,1.521,0.448v0.349h-6.049
	v-0.375c0.777-0.071,1.29-0.228,1.535-0.47c0.246-0.241,0.369-0.733,0.369-1.475v-5.781c0-0.866-0.094-1.507-0.281-1.918
	c-0.331-0.733-0.979-1.101-1.945-1.101c-0.582,0-1.158,0.193-1.73,0.578c-0.33,0.224-0.737,0.582-1.221,1.072v6.868
	c0,0.724,0.127,1.274,0.383,1.649c0.254,0.375,0.793,0.578,1.615,0.604v0.349h-6.156v-0.349c0.85-0.106,1.391-0.313,1.623-0.616
	c0.231-0.305,0.348-1.056,0.348-2.254v-3.748c0-1.375-0.088-2.32-0.268-2.838c-0.295-0.876-0.921-1.314-1.878-1.314
	c-0.545,0-1.082,0.15-1.608,0.449c-0.528,0.301-0.994,0.691-1.396,1.174v7.338c0,0.68,0.118,1.148,0.354,1.408
	c0.238,0.26,0.754,0.395,1.55,0.402v0.35h-6.103V132.174L369.395,132.174z"/>
<path fill="#FFFFFF" d="M393.27,126.607c0.823-0.537,2.465-1.266,4.924-2.187v-1.14c0-0.912-0.09-1.547-0.269-1.905
	c-0.304-0.599-0.935-0.897-1.892-0.897c-0.456,0-0.891,0.115-1.301,0.349c-0.412,0.241-0.617,0.571-0.617,0.993
	c0,0.106,0.021,0.287,0.066,0.543c0.045,0.255,0.067,0.418,0.067,0.49c0,0.5-0.166,0.85-0.497,1.045
	c-0.188,0.117-0.411,0.176-0.67,0.176c-0.402,0-0.711-0.133-0.926-0.396s-0.322-0.557-0.322-0.878c0-0.626,0.387-1.28,1.16-1.965
	s1.906-1.026,3.399-1.026c1.735,0,2.911,0.563,3.528,1.69c0.331,0.617,0.496,1.517,0.496,2.696v5.379
	c0,0.519,0.036,0.876,0.107,1.072c0.115,0.35,0.356,0.523,0.724,0.523c0.206,0,0.376-0.031,0.51-0.094s0.367-0.215,0.698-0.456
	v0.698c-0.287,0.349-0.595,0.635-0.926,0.857c-0.501,0.34-1.011,0.51-1.529,0.51c-0.608,0-1.049-0.196-1.321-0.59
	s-0.422-0.863-0.448-1.408c-0.681,0.59-1.262,1.028-1.744,1.314c-0.813,0.482-1.588,0.725-2.32,0.725
	c-0.77,0-1.436-0.271-1.999-0.812s-0.845-1.227-0.845-2.059C391.325,128.557,391.975,127.475,393.27,126.607z M398.193,125.092
	c-1.028,0.34-1.878,0.717-2.549,1.127c-1.287,0.797-1.932,1.699-1.932,2.709c0,0.814,0.268,1.413,0.805,1.797
	c0.35,0.25,0.738,0.375,1.168,0.375c0.59,0,1.155-0.166,1.696-0.496s0.812-0.75,0.812-1.261L398.193,125.092L398.193,125.092z"/>
<path fill="#FFFFFF" d="M409.5,120.156v0.966h-2.736l-0.026,7.726c0,0.68,0.058,1.194,0.174,1.543
	c0.215,0.616,0.635,0.926,1.261,0.926c0.321,0,0.602-0.076,0.839-0.229c0.236-0.152,0.506-0.395,0.812-0.725l0.35,0.295
	l-0.295,0.402c-0.467,0.625-0.957,1.067-1.477,1.328c-0.52,0.258-1.02,0.389-1.502,0.389c-1.056,0-1.771-0.471-2.146-1.408
	c-0.206-0.51-0.309-1.217-0.309-2.12v-8.128h-1.462c-0.045-0.027-0.078-0.055-0.102-0.081c-0.021-0.026-0.033-0.062-0.033-0.106
	c0-0.09,0.021-0.16,0.061-0.209c0.041-0.049,0.168-0.162,0.382-0.342c0.617-0.51,1.062-0.923,1.335-1.24
	c0.271-0.317,0.914-1.156,1.925-2.516c0.116,0,0.186,0.01,0.208,0.025c0.022,0.019,0.034,0.086,0.034,0.203v3.299h2.709V120.156z"/>
<path fill="#FFFFFF" d="M410.681,132.146c0.957-0.088,1.562-0.252,1.812-0.489c0.25-0.237,0.375-0.878,0.375-1.925v-6.398
	c0-0.582-0.04-0.984-0.12-1.208c-0.135-0.366-0.416-0.55-0.846-0.55c-0.1,0-0.194,0.009-0.288,0.027
	c-0.095,0.018-0.364,0.088-0.812,0.215v-0.416l0.577-0.188c1.564-0.509,2.655-0.894,3.272-1.153c0.25-0.106,0.411-0.16,0.482-0.16
	c0.019,0.062,0.026,0.129,0.026,0.201v9.631c0,1.02,0.123,1.658,0.369,1.918c0.245,0.26,0.802,0.425,1.67,0.496v0.375h-6.521v-0.375
	H410.681z M412.812,114.212c0.27-0.276,0.601-0.414,0.993-0.414c0.385,0,0.713,0.136,0.985,0.407
	c0.271,0.271,0.409,0.604,0.409,0.995c0,0.383-0.138,0.71-0.409,0.981c-0.272,0.271-0.602,0.406-0.985,0.406
	c-0.394,0-0.725-0.136-0.993-0.406c-0.268-0.271-0.401-0.6-0.401-0.981S412.546,114.488,412.812,114.212z"/>
<path fill="#FFFFFF" d="M426.22,120.129c0.312,0.107,0.785,0.34,1.419,0.698l1.497-0.886c0.081-0.035,0.145-0.058,0.188-0.066
	c0.045,0.045,0.072,0.076,0.081,0.094s0.014,0.075,0.014,0.174v16.297c0,0.475,0.085,0.828,0.255,1.061
	c0.26,0.35,0.76,0.559,1.502,0.63v0.375h-6.491v-0.442c0.797-0.01,1.389-0.144,1.777-0.402c0.389-0.26,0.583-0.836,0.583-1.73
	v-5.109c-0.625,0.617-1.165,1.06-1.62,1.328c-0.75,0.438-1.594,0.656-2.53,0.656c-1.116,0-2.14-0.517-3.067-1.549
	c-0.928-1.031-1.394-2.551-1.394-4.554c0-1.843,0.573-3.44,1.72-4.795c1.146-1.354,2.634-2.032,4.462-2.032
	C425.221,119.874,425.756,119.959,426.22,120.129z M425.178,130.98c0.361-0.071,0.698-0.192,1.012-0.362
	c0.428-0.232,0.685-0.438,0.77-0.617s0.127-0.515,0.127-1.006v-5.66c0-0.707-0.103-1.256-0.308-1.649
	c-0.401-0.715-1.16-1.074-2.275-1.074c-1.268,0-2.202,0.525-2.804,1.576c-0.604,1.051-0.904,2.252-0.904,3.603
	c0,1.583,0.306,2.86,0.917,3.836s1.479,1.462,2.604,1.462C424.528,131.088,424.816,131.052,425.178,130.98z"/>
<path fill="#FFFFFF" d="M435.764,120.102v8.584c0,0.608,0.085,1.097,0.255,1.463c0.331,0.68,0.939,1.019,1.824,1.019
	c0.608,0,1.202-0.201,1.784-0.604c0.33-0.223,0.666-0.531,1.006-0.924v-7.352c0-0.688-0.134-1.141-0.401-1.354
	c-0.27-0.216-0.806-0.345-1.609-0.39v-0.442h4.332v9.442c0,0.608,0.109,1.026,0.329,1.254c0.219,0.228,0.682,0.329,1.388,0.302
	v0.375c-0.491,0.135-0.854,0.235-1.086,0.303c-0.233,0.066-0.622,0.189-1.167,0.369c-0.232,0.08-0.742,0.272-1.529,0.576
	c-0.045,0-0.07-0.02-0.08-0.061c-0.01-0.04-0.014-0.087-0.014-0.141v-2.16c-0.607,0.725-1.163,1.261-1.663,1.609
	c-0.761,0.537-1.564,0.805-2.415,0.805c-0.776,0-1.511-0.276-2.199-0.832c-0.697-0.547-1.047-1.465-1.047-2.754v-6.97
	c0-0.71-0.15-1.185-0.456-1.424c-0.195-0.151-0.615-0.257-1.261-0.319v-0.375H435.764L435.764,120.102z"/>
<path fill="#FFFFFF" d="M454.851,121.249c0.948,0.872,1.423,2.108,1.423,3.709h-8.519c0.09,2.069,0.561,3.578,1.409,4.522
	c0.849,0.945,1.854,1.418,3.018,1.418c0.939,0,1.73-0.244,2.374-0.735c0.646-0.491,1.238-1.187,1.784-2.088l0.47,0.161
	c-0.366,1.138-1.053,2.189-2.06,3.156c-1.006,0.967-2.237,1.451-3.695,1.451c-1.681,0-2.979-0.635-3.896-1.904
	c-0.916-1.271-1.375-2.731-1.375-4.387c0-1.797,0.532-3.349,1.597-4.654c1.063-1.306,2.45-1.959,4.158-1.959
	C452.799,119.941,453.903,120.377,454.851,121.249z M448.426,122.275c-0.286,0.482-0.491,1.091-0.617,1.824h5.661
	c-0.099-0.896-0.269-1.562-0.51-2c-0.438-0.787-1.172-1.18-2.2-1.18C449.74,120.92,448.963,121.372,448.426,122.275z"/>
<path fill="#FFFFFF" d="M458.875,128.298h0.442c0.204,1.021,0.48,1.802,0.829,2.347c0.624,1.002,1.538,1.502,2.743,1.502
	c0.669,0,1.197-0.186,1.585-0.557c0.39-0.371,0.583-0.852,0.583-1.441c0-0.375-0.111-0.738-0.336-1.086
	c-0.224-0.35-0.616-0.688-1.18-1.021l-1.502-0.858c-1.1-0.59-1.909-1.185-2.428-1.783c-0.521-0.6-0.779-1.305-0.779-2.119
	c0-1.002,0.358-1.824,1.073-2.469c0.716-0.644,1.613-0.965,2.695-0.965c0.475,0,0.995,0.09,1.562,0.269
	c0.568,0.179,0.888,0.268,0.959,0.268c0.161,0,0.277-0.022,0.349-0.067c0.072-0.045,0.136-0.115,0.188-0.215h0.321l0.094,3.743
	h-0.415c-0.18-0.868-0.421-1.542-0.726-2.024c-0.555-0.895-1.354-1.342-2.4-1.342c-0.626,0-1.117,0.192-1.476,0.578
	c-0.357,0.383-0.536,0.836-0.536,1.354c0,0.822,0.616,1.556,1.852,2.199l1.771,0.953c1.904,1.039,2.856,2.246,2.856,3.623
	c0,1.055-0.395,1.918-1.185,2.588c-0.791,0.67-1.824,1.006-3.102,1.006c-0.535,0-1.143-0.088-1.82-0.268
	c-0.679-0.179-1.079-0.269-1.204-0.269c-0.107,0-0.201,0.038-0.281,0.114c-0.081,0.076-0.145,0.166-0.188,0.274h-0.349v-4.334
	H458.875z"/>
<rect x="54" y="1.684" fill="#FFFFFF" width="5" height="131"/>
<rect x="43" y="1.684" fill="#FFFFFF" width="5" height="131"/>
<rect x="33" y="1.684" fill="#FFFFFF" width="5" height="131"/>
<rect x="22" y="1.684" fill="#FFFFFF" width="5" height="131"/>
<rect x="11" y="1.684" fill="#FFFFFF" width="5" height="131"/>
<rect y="1.684" fill="#FFFFFF" width="5" height="131"/>
</svg>
